<svg xmlns="http://www.w3.org/2000/svg" viewBox="0 16.649999618530273 52.45000076293945 49" data-asc="1.263" width="52.45000076293945" height="49"><defs/><g fill="#05f1f5"><g transform="translate(0, 0)"><path d="M12.15 56.15L12.15 31.15L4.35 35.65L4.35 30.65L24.25 19.15L24.25 24.15L16.45 28.65L16.45 53.65L24.25 49.15L24.25 54.15L4.35 65.65L4.35 60.65L12.15 56.15M12.15 56.15L4.35 60.65L0 58.15L7.80 53.65L12.15 56.15M4.35 60.65L4.35 65.65L0 63.15L0 58.15L4.35 60.65M24.25 49.15L16.45 53.65L12.15 51.15L19.95 46.65L24.25 49.15M12.15 31.15L12.15 56.15L7.80 53.65L7.80 28.65L12.15 31.15M24.25 19.15L4.35 30.65L0 28.15L19.95 16.65L24.25 19.15M4.35 30.65L4.35 35.65L0 33.15L0 28.15L4.35 30.65ZM32.95 30.65L37.30 28.15L37.30 43.15L48.10 36.90L48.10 21.90L52.45 19.40L52.45 29.40Q52.45 30.70 51.83 32.20Q51.20 33.70 50.23 34.97Q49.25 36.25 48.10 36.90Q49.80 35.90 51.13 36.65Q52.45 37.40 52.45 39.40L52.45 54.40L48.10 56.90L48.10 41.90L37.30 48.15L37.30 63.15L32.95 65.65L32.95 30.65M48.10 41.90L48.10 56.90L43.75 54.40L43.75 39.40L48.10 41.90M51.15 36.65Q49.80 35.90 48.10 36.90L43.75 34.40Q45.50 33.40 46.80 34.15L51.15 36.65M52.45 19.40L48.10 21.90L43.75 19.40L48.10 16.90L52.45 19.40M48.10 21.90L48.10 36.90L43.75 34.40L43.75 19.40L48.10 21.90M48.10 36.90L37.30 43.15L32.95 40.65L43.75 34.40L48.10 36.90M37.30 28.15L32.95 30.65L28.60 28.15L32.95 25.65L37.30 28.15M32.95 30.65L32.95 65.65L28.60 63.15L28.60 28.15L32.95 30.65Z"/></g></g></svg>